/* XPM */
static char *result[] = {
/* columns rows colors chars-per-pixel */
"64 64 4 1 ",
"  c black",
". c #384573",
"X c #9C4459",
"o c #709AD1",
/* pixels */
"oooooooooo. ..oooooooooooooo.. XXXXXXXXXXXX....... .............",
"ooooooXXXXX XXXXXXXXXXXXXXXX.. XXXXXXXXXXXXXXXXXX. XXXXXXXXXXXXX",
"XXXXXXXXXXX XXXXXXXXXXXXXXXX.. XXXXoooXXXXXXXXXXX. XXXXXXXXXXXXX",
"XXXXXXXXXXX XXXXXXXXXXXXXXXX.. XXXXoooXXXXXXXXXXX. .XXXXXXXXXXXX",
"XXXXXXXXXXX XXXXXXXXXXXXXXXX.. XXXXXXXX..XXXXXXXXX .XXXXXXXXX...",
"........... .................. XXXXXXXX..XXXXXXXX. .............",
"........... .................. ................... .............",
"                                                                ",
".. ................. .................. ........XXXX...... .....",
".. ................. .XXXXXXXXXXXXXXXX. ..XXXXXXXXXXXXXX.. .....",
"XX XXXXXXXXXXXXXXXXX .XXooooooXXXXXXXX. ..XXXXXooXXXXXXXXX XXXXX",
"XX oooooooooXXXXXXXX .XXooooooXXXXXXX.. ..XXXXXooXXXXXXXXX XXXXX",
"XX oooooooooXXXXXXXX .XXXXXXXXXXXXXXX.. ..XXXXXXXXXXXXXXXX XXXXX",
"XX XXXXXXXXXXXXXXXXX .XXXXXXXXXXXXXXX.. .................. ....X",
".. XXXXXXXXXXXXXXXXX .......XXXXX...... .................. .....",
"                                                                ",
"........... ..........XXX..... ...XXXXXX..XXXXXXX. .............",
"XXXXXXX.... ......XXXXXXXXXXXX .XXXXXXXXXXXXXXXXX. XXXXXXXXXXX..",
"XXXXXXXXXX. XXXXXXXXXXXXXXXXXX .XXXXXXXXXXXXXXXXX. XXXXXXXXXXXXX",
"XXXXXXXXXX. XXXXXXXXXXXXXXXXXX .XXXXXXXXXXXXXXXXX. XXXXXXXXXXXXX",
"........... XXXXXXXXXXXXXXXXXX .XXXXXXXXXXXXXXXXX. XXXXXXXXXX...",
"........... .................. ....XXXXXXXXXXXXXX. X............",
"                                                                ",
"XX XXXXX............ X................. .............XXXX. XXXXX",
"XX XXXXXXXXXX....... .......XXX........ .......XXXXXXXXXX. XXXXX",
"XX XXXXXXXXXXXXXXX.. .................. ..XXXXXXXXXXXXXXX. .XXXX",
"XX XXXXXXXXXXXXXX... XXXXX......XXXXXXX XXXXXXXXXXXXXXXXXX .XXXX",
"XX XXXXXXXXXXXXXX... XXXXXXXXXXXXXXXXXX XXXXXXXXXXXXXXXXXX .XXXX",
".. .XXXXXXXXXXXXX... XXXXXXXXXXXXXXXXXX XXXXXXXXXXXXXXXXXX .....",
".. .............X... ...XXXXXX...XXXXXX XXXXXXXXXXXXXXXX.. .....",
"                                                                ",
"XXXXXXXXXXX .................. ................... ......XXXXXXX",
"XXXXXXXXXXX ..XXXXXXXXXXXXXX.. .XXXXXXXXXXXXXXXXX. XXXXXXXXXXXXX",
"XXXXXXXXXXX .XXXXXXXXXXXXXXX.. .XXXXXXXXXXXXXXXXX. .XXXXXXXXXXXX",
"XXXXXXXXXXX .XXXXXXXXXXXXXXX.. .XXXXXXXXXXXXXXXXXX .XXXXoooooXXX",
"..XXXXXXXXX .XXXXXXXXXXXXXX... .XXXXXXXXXXXXXXXXXX .XXXXoooooXXX",
".........XX .XXXXXXXXXXXXXX... XXXXXXXXXXXXXXXXXXX .XXXXXXXXXXXX",
"........... ........XXXXXXX... XXXXXXXXXXXXXXXXXXX .XXXXXXXXXXXX",
"                                                                ",
"X. .XXXXXXXXXXXXXX.. .................. ............XXXXXXX .XXX",
"X. .XXXXXXXXXXXXXXXX XXXXX.........XXXX XXXXXXXXXXXXXXXXXXX .XXX",
"X. XXXXXXoooXXXXXXXX XXXXXXXXXXXXXXXXXX XXXXXoooooooooooooX ..XX",
"X. XXXXXXoooXXXXXXXX XXXXXXXXXXXXXXXXXX XXXXXoooooooooooooX ..XX",
"X. XXXXXXXXXXXXXXXXX XXXXXXXXXXXXXXXXXX XXXXXXXXXXXXXXXXooX ..XX",
"X. XXXXXXXXXXXXXXXXX XXXXXXXXXXXXXXXXXX XXXXXXXXXXXXXXXXXXX ..XX",
"X. XXXXXXXXXXXXXXXXX XXXXXXXXXXXXXXXXXX XXXXXXXXXXXXXXXXXXX ..XX",
".. ................. ...XXXXX.......... ................... ....",
".. ................. .................. ................... ....",
"                                                                ",
"XXXXXXXX... .XXXXXXXXX........ ................... ......XXXXXXX",
"XXXXXXXX... .XXXXXXXXXXXXXXXX. ................... .XXXXXXXXXXXX",
"XXXXXXXX... .XXoooXXXXXXXXXXX. XXXXXXXXXXXXXXXXXX. XXXXXXXXXXXXX",
"XXXXXXXXX.. .XXooooooXXXXXXXX. XXXXXXXXXXXXXXXXXX. XXXXXXXXXXXXX",
"XXXXXXXXX.. .XXXooooooooXXXXX. XXXXXooooooooXXXXX. .XXXXXXXXXXXX",
"XXXXXXXXX.. .XXXXXXoooooXXXXX. XXXXXooooooooXXXXXX .XXXXXXXXXXXX",
"XXXXXXXXX.. .XXXXXXXXXXXXXXXX. XXXXXXXXXXXXXXXXXXX .XXXXXXXXXXXX",
"........... .XXXXXXXXXXXXXXXX. XXXXXXXXXXXXXXXX... .......XXXXXX",
"........... .................. ................... .............",
"                                                                ",
"XX XXXXXXXXXXXXXXXXX ....XXXX..XXXXXXX.. XXXXXXXXXXXXXXXX.. XXXX",
"XX XXXXXXXXXXXXXXXXX ..XXXXXXXXXXXXXXX.. XXXXXXXXXXXXXXXX.. XXXX",
"XX XXXXXXXXXXXXXXXXX .XXXXXXXXXXXXXXXX.. XXXXXXXXXXXXXXXXX. XXXX",
"XX XXXXXXXXXXXXXXXX. .XXXXXXXXXXXXXXXX.. XXXXXXXXXXXXXXXXX. XXXX",
"XX XXXXXXXXXXXXXXXX. XXXXXXXXXXXXXXXXX.. XXXXXXXXXXXXXXXXX. XXXX"
};
